solid OpenSCAD_Model
  facet normal -1 0 0
    outer loop
      vertex 0 0.797887 16.682
      vertex 0 0 20
      vertex 0 1.52443 18.918
    endloop
  endfacet
  facet normal -1 0 0
    outer loop
      vertex 0 3.87557 18.918
      vertex 0 0 20
      vertex 0 55 20
    endloop
  endfacet
  facet normal -1 0 0
    outer loop
      vertex 0 0 0
      vertex 0 0 20
      vertex 0 1.52443 4.31803
    endloop
  endfacet
  facet normal -1 0 0
    outer loop
      vertex 0 52.3 0.7
      vertex 0 2.7 15.3
      vertex 0 4.60211 16.682
    endloop
  endfacet
  facet normal -1 0 0
    outer loop
      vertex 0 0 0
      vertex 0 1.52443 4.31803
      vertex 0 0.797887 2.08197
    endloop
  endfacet
  facet normal -1 0 0
    outer loop
      vertex 0 0 0
      vertex 0 0.797887 2.08197
      vertex 0 2.7 0.7
    endloop
  endfacet
  facet normal -1 0 0
    outer loop
      vertex 0 0 0
      vertex 0 2.7 0.7
      vertex 0 55 0
    endloop
  endfacet
  facet normal -1 0 0
    outer loop
      vertex 0 3.87557 4.31803
      vertex 0 55 0
      vertex 0 4.60211 2.08197
    endloop
  endfacet
  facet normal -1 0 0
    outer loop
      vertex 0 2.7 15.3
      vertex 0 3.87557 4.31803
      vertex 0 0.797887 16.682
    endloop
  endfacet
  facet normal -1 0 0
    outer loop
      vertex 0 1.52443 18.918
      vertex 0 0 20
      vertex 0 3.87557 18.918
    endloop
  endfacet
  facet normal -1 0 0
    outer loop
      vertex 0 52.3 0.7
      vertex 0 4.60211 16.682
      vertex 0 3.87557 18.918
    endloop
  endfacet
  facet normal -1 0 0
    outer loop
      vertex 0 1.52443 4.31803
      vertex 0 0 20
      vertex 0 0.797887 16.682
    endloop
  endfacet
  facet normal -1 0 0
    outer loop
      vertex 0 1.52443 4.31803
      vertex 0 0.797887 16.682
      vertex 0 3.87557 4.31803
    endloop
  endfacet
  facet normal -1 0 0
    outer loop
      vertex 0 54.2021 2.08197
      vertex 0 55 0
      vertex 0 52.3 0.7
    endloop
  endfacet
  facet normal -1 0 0
    outer loop
      vertex 0 51.1244 18.918
      vertex 0 3.87557 18.918
      vertex 0 55 20
    endloop
  endfacet
  facet normal -1 0 0
    outer loop
      vertex 0 50.3979 2.08197
      vertex 0 3.87557 18.918
      vertex 0 51.1244 4.31803
    endloop
  endfacet
  facet normal -1 0 0
    outer loop
      vertex 0 53.4756 18.918
      vertex 0 55 20
      vertex 0 54.2021 16.682
    endloop
  endfacet
  facet normal -1 0 0
    outer loop
      vertex 0 3.87557 4.31803
      vertex 0 2.7 15.3
      vertex 0 52.3 0.7
    endloop
  endfacet
  facet normal -1 0 0
    outer loop
      vertex 0 3.87557 4.31803
      vertex 0 52.3 0.7
      vertex 0 55 0
    endloop
  endfacet
  facet normal -1 0 0
    outer loop
      vertex 0 52.3 15.3
      vertex 0 51.1244 4.31803
      vertex 0 50.3979 16.682
    endloop
  endfacet
  facet normal -1 0 0
    outer loop
      vertex 0 55 0
      vertex 0 54.2021 2.08197
      vertex 0 55 20
    endloop
  endfacet
  facet normal -1 0 0
    outer loop
      vertex 0 54.2021 2.08197
      vertex 0 53.4756 4.31803
      vertex 0 55 20
    endloop
  endfacet
  facet normal -1 0 0
    outer loop
      vertex 0 50.3979 16.682
      vertex 0 3.87557 18.918
      vertex 0 51.1244 18.918
    endloop
  endfacet
  facet normal -1 0 0
    outer loop
      vertex 0 53.4756 18.918
      vertex 0 51.1244 18.918
      vertex 0 55 20
    endloop
  endfacet
  facet normal -1 0 0
    outer loop
      vertex 0 51.1244 4.31803
      vertex 0 3.87557 18.918
      vertex 0 50.3979 16.682
    endloop
  endfacet
  facet normal -1 0 0
    outer loop
      vertex 0 54.2021 16.682
      vertex 0 51.1244 4.31803
      vertex 0 52.3 15.3
    endloop
  endfacet
  facet normal -1 0 0
    outer loop
      vertex 0 53.4756 4.31803
      vertex 0 51.1244 4.31803
      vertex 0 54.2021 16.682
    endloop
  endfacet
  facet normal -1 0 0
    outer loop
      vertex 0 53.4756 4.31803
      vertex 0 54.2021 16.682
      vertex 0 55 20
    endloop
  endfacet
  facet normal -1 0 0
    outer loop
      vertex 0 4.60211 2.08197
      vertex 0 55 0
      vertex 0 2.7 0.7
    endloop
  endfacet
  facet normal -1 0 0
    outer loop
      vertex 0 52.3 0.7
      vertex 0 3.87557 18.918
      vertex 0 50.3979 2.08197
    endloop
  endfacet
  facet normal 0 -1 0
    outer loop
      vertex 0 0 20
      vertex 0 0 0
      vertex 1 0 0
    endloop
  endfacet
  facet normal 0 -1 0
    outer loop
      vertex 1 0 20
      vertex 0 0 20
      vertex 1 0 0
    endloop
  endfacet
  facet normal 0 0 -1
    outer loop
      vertex 0 0 0
      vertex 0 55 0
      vertex 1 0 0
    endloop
  endfacet
  facet normal 0 0 -1
    outer loop
      vertex 1 0 0
      vertex 0 55 0
      vertex 1 55 0
    endloop
  endfacet
  facet normal 0 1 0
    outer loop
      vertex 0 55 0
      vertex 0 55 20
      vertex 1 55 0
    endloop
  endfacet
  facet normal 0 1 0
    outer loop
      vertex 1 55 0
      vertex 0 55 20
      vertex 1 55 20
    endloop
  endfacet
  facet normal 0 0 1
    outer loop
      vertex 0 55 20
      vertex 0 0 20
      vertex 1 0 20
    endloop
  endfacet
  facet normal 0 0 1
    outer loop
      vertex 1 55 20
      vertex 0 55 20
      vertex 1 0 20
    endloop
  endfacet
  facet normal 2.22045e-16 0 -1
    outer loop
      vertex 1 3.87557 4.31803
      vertex 1 1.52443 4.31803
      vertex 0 3.87557 4.31803
    endloop
  endfacet
  facet normal 2.22045e-16 0 -1
    outer loop
      vertex 0 3.87557 4.31803
      vertex 1 1.52443 4.31803
      vertex 0 1.52443 4.31803
    endloop
  endfacet
  facet normal 6.86155e-17 0.951057 -0.309017
    outer loop
      vertex 1 1.52443 4.31803
      vertex 1 0.797887 2.08197
      vertex 0 1.52443 4.31803
    endloop
  endfacet
  facet normal 6.86155e-17 0.951057 -0.309017
    outer loop
      vertex 0 1.52443 4.31803
      vertex 1 0.797887 2.08197
      vertex 0 0.797887 2.08197
    endloop
  endfacet
  facet normal 6.86155e-17 -0.951057 -0.309017
    outer loop
      vertex 0 4.60211 2.08197
      vertex 1 4.60211 2.08197
      vertex 1 3.87557 4.31803
    endloop
  endfacet
  facet normal 6.86155e-17 -0.951057 -0.309017
    outer loop
      vertex 0 3.87557 4.31803
      vertex 0 4.60211 2.08197
      vertex 1 3.87557 4.31803
    endloop
  endfacet
  facet normal -1.79638e-16 -0.587785 0.809017
    outer loop
      vertex 1 2.7 0.7
      vertex 1 4.60211 2.08197
      vertex 0 4.60211 2.08197
    endloop
  endfacet
  facet normal -1.79638e-16 -0.587785 0.809017
    outer loop
      vertex 0 2.7 0.7
      vertex 1 2.7 0.7
      vertex 0 4.60211 2.08197
    endloop
  endfacet
  facet normal -1.79638e-16 0.587785 0.809017
    outer loop
      vertex 1 0.797887 2.08197
      vertex 1 2.7 0.7
      vertex 0 2.7 0.7
    endloop
  endfacet
  facet normal -1.79638e-16 0.587785 0.809017
    outer loop
      vertex 0 0.797887 2.08197
      vertex 1 0.797887 2.08197
      vertex 0 2.7 0.7
    endloop
  endfacet
  facet normal 6.86155e-17 0.951057 -0.309017
    outer loop
      vertex 1 1.52443 18.918
      vertex 1 0.797887 16.682
      vertex 0 1.52443 18.918
    endloop
  endfacet
  facet normal 6.86155e-17 0.951057 -0.309017
    outer loop
      vertex 0 1.52443 18.918
      vertex 1 0.797887 16.682
      vertex 0 0.797887 16.682
    endloop
  endfacet
  facet normal 2.22045e-16 0 -1
    outer loop
      vertex 1 3.87557 18.918
      vertex 1 1.52443 18.918
      vertex 0 3.87557 18.918
    endloop
  endfacet
  facet normal 2.22045e-16 0 -1
    outer loop
      vertex 0 3.87557 18.918
      vertex 1 1.52443 18.918
      vertex 0 1.52443 18.918
    endloop
  endfacet
  facet normal 6.86155e-17 -0.951057 -0.309017
    outer loop
      vertex 0 4.60211 16.682
      vertex 1 4.60211 16.682
      vertex 1 3.87557 18.918
    endloop
  endfacet
  facet normal 6.86155e-17 -0.951057 -0.309017
    outer loop
      vertex 0 3.87557 18.918
      vertex 0 4.60211 16.682
      vertex 1 3.87557 18.918
    endloop
  endfacet
  facet normal -1.79638e-16 -0.587785 0.809017
    outer loop
      vertex 1 2.7 15.3
      vertex 1 4.60211 16.682
      vertex 0 4.60211 16.682
    endloop
  endfacet
  facet normal -1.79638e-16 -0.587785 0.809017
    outer loop
      vertex 0 2.7 15.3
      vertex 1 2.7 15.3
      vertex 0 4.60211 16.682
    endloop
  endfacet
  facet normal -1.79638e-16 0.587785 0.809017
    outer loop
      vertex 1 0.797887 16.682
      vertex 1 2.7 15.3
      vertex 0 2.7 15.3
    endloop
  endfacet
  facet normal -1.79638e-16 0.587785 0.809017
    outer loop
      vertex 0 0.797887 16.682
      vertex 1 0.797887 16.682
      vertex 0 2.7 15.3
    endloop
  endfacet
  facet normal 2.22045e-16 0 -1
    outer loop
      vertex 1 53.4756 4.31803
      vertex 1 51.1244 4.31803
      vertex 0 53.4756 4.31803
    endloop
  endfacet
  facet normal 2.22045e-16 0 -1
    outer loop
      vertex 0 53.4756 4.31803
      vertex 1 51.1244 4.31803
      vertex 0 51.1244 4.31803
    endloop
  endfacet
  facet normal 6.86155e-17 0.951057 -0.309017
    outer loop
      vertex 1 51.1244 4.31803
      vertex 1 50.3979 2.08197
      vertex 0 51.1244 4.31803
    endloop
  endfacet
  facet normal 6.86155e-17 0.951057 -0.309017
    outer loop
      vertex 0 51.1244 4.31803
      vertex 1 50.3979 2.08197
      vertex 0 50.3979 2.08197
    endloop
  endfacet
  facet normal 6.86155e-17 -0.951057 -0.309017
    outer loop
      vertex 0 54.2021 2.08197
      vertex 1 54.2021 2.08197
      vertex 1 53.4756 4.31803
    endloop
  endfacet
  facet normal 6.86155e-17 -0.951057 -0.309017
    outer loop
      vertex 0 53.4756 4.31803
      vertex 0 54.2021 2.08197
      vertex 1 53.4756 4.31803
    endloop
  endfacet
  facet normal -1.79638e-16 -0.587785 0.809017
    outer loop
      vertex 1 52.3 0.7
      vertex 1 54.2021 2.08197
      vertex 0 54.2021 2.08197
    endloop
  endfacet
  facet normal -1.79638e-16 -0.587785 0.809017
    outer loop
      vertex 0 52.3 0.7
      vertex 1 52.3 0.7
      vertex 0 54.2021 2.08197
    endloop
  endfacet
  facet normal -1.79638e-16 0.587785 0.809017
    outer loop
      vertex 1 50.3979 2.08197
      vertex 1 52.3 0.7
      vertex 0 52.3 0.7
    endloop
  endfacet
  facet normal -1.79638e-16 0.587785 0.809017
    outer loop
      vertex 0 50.3979 2.08197
      vertex 1 50.3979 2.08197
      vertex 0 52.3 0.7
    endloop
  endfacet
  facet normal 2.22045e-16 0 -1
    outer loop
      vertex 1 53.4756 18.918
      vertex 1 51.1244 18.918
      vertex 0 53.4756 18.918
    endloop
  endfacet
  facet normal 2.22045e-16 0 -1
    outer loop
      vertex 0 53.4756 18.918
      vertex 1 51.1244 18.918
      vertex 0 51.1244 18.918
    endloop
  endfacet
  facet normal 6.86155e-17 0.951057 -0.309017
    outer loop
      vertex 1 51.1244 18.918
      vertex 1 50.3979 16.682
      vertex 0 51.1244 18.918
    endloop
  endfacet
  facet normal 6.86155e-17 0.951057 -0.309017
    outer loop
      vertex 0 51.1244 18.918
      vertex 1 50.3979 16.682
      vertex 0 50.3979 16.682
    endloop
  endfacet
  facet normal 6.86155e-17 -0.951057 -0.309017
    outer loop
      vertex 0 54.2021 16.682
      vertex 1 54.2021 16.682
      vertex 1 53.4756 18.918
    endloop
  endfacet
  facet normal 6.86155e-17 -0.951057 -0.309017
    outer loop
      vertex 0 53.4756 18.918
      vertex 0 54.2021 16.682
      vertex 1 53.4756 18.918
    endloop
  endfacet
  facet normal -1.79638e-16 -0.587785 0.809017
    outer loop
      vertex 1 52.3 15.3
      vertex 1 54.2021 16.682
      vertex 0 54.2021 16.682
    endloop
  endfacet
  facet normal -1.79638e-16 -0.587785 0.809017
    outer loop
      vertex 0 52.3 15.3
      vertex 1 52.3 15.3
      vertex 0 54.2021 16.682
    endloop
  endfacet
  facet normal -1.79638e-16 0.587785 0.809017
    outer loop
      vertex 1 50.3979 16.682
      vertex 1 52.3 15.3
      vertex 0 52.3 15.3
    endloop
  endfacet
  facet normal -1.79638e-16 0.587785 0.809017
    outer loop
      vertex 0 50.3979 16.682
      vertex 1 50.3979 16.682
      vertex 0 52.3 15.3
    endloop
  endfacet
  facet normal 1 0 0
    outer loop
      vertex 1 2.7 0.7
      vertex 1 0 0
      vertex 1 55 0
    endloop
  endfacet
  facet normal 1 0 0
    outer loop
      vertex 1 0 20
      vertex 1 0 0
      vertex 1 0.797887 2.08197
    endloop
  endfacet
  facet normal 1 0 0
    outer loop
      vertex 1 4.60211 2.08197
      vertex 1 2.7 0.7
      vertex 1 55 0
    endloop
  endfacet
  facet normal 1 0 0
    outer loop
      vertex 1 0 20
      vertex 1 0.797887 2.08197
      vertex 1 1.52443 4.31803
    endloop
  endfacet
  facet normal 1 0 0
    outer loop
      vertex 1 52.3 0.7
      vertex 1 3.87557 4.31803
      vertex 1 55 0
    endloop
  endfacet
  facet normal 1 0 0
    outer loop
      vertex 1 0.797887 16.682
      vertex 1 1.52443 4.31803
      vertex 1 3.87557 4.31803
    endloop
  endfacet
  facet normal 1 0 0
    outer loop
      vertex 1 0.797887 16.682
      vertex 1 1.52443 18.918
      vertex 1 0 20
    endloop
  endfacet
  facet normal 1 0 0
    outer loop
      vertex 1 0.797887 2.08197
      vertex 1 0 0
      vertex 1 2.7 0.7
    endloop
  endfacet
  facet normal 1 0 0
    outer loop
      vertex 1 52.3 0.7
      vertex 1 3.87557 18.918
      vertex 1 4.60211 16.682
    endloop
  endfacet
  facet normal 1 0 0
    outer loop
      vertex 1 0 20
      vertex 1 1.52443 4.31803
      vertex 1 0.797887 16.682
    endloop
  endfacet
  facet normal 1 0 0
    outer loop
      vertex 1 1.52443 18.918
      vertex 1 3.87557 18.918
      vertex 1 0 20
    endloop
  endfacet
  facet normal 1 0 0
    outer loop
      vertex 1 55 20
      vertex 1 0 20
      vertex 1 3.87557 18.918
    endloop
  endfacet
  facet normal 1 0 0
    outer loop
      vertex 1 54.2021 16.682
      vertex 1 50.3979 2.08197
      vertex 1 51.1244 4.31803
    endloop
  endfacet
  facet normal 1 0 0
    outer loop
      vertex 1 2.7 15.3
      vertex 1 3.87557 4.31803
      vertex 1 4.60211 16.682
    endloop
  endfacet
  facet normal 1 0 0
    outer loop
      vertex 1 52.3 0.7
      vertex 1 50.3979 2.08197
      vertex 1 3.87557 18.918
    endloop
  endfacet
  facet normal 1 0 0
    outer loop
      vertex 1 54.2021 16.682
      vertex 1 52.3 15.3
      vertex 1 50.3979 2.08197
    endloop
  endfacet
  facet normal 1 0 0
    outer loop
      vertex 1 50.3979 16.682
      vertex 1 3.87557 18.918
      vertex 1 50.3979 2.08197
    endloop
  endfacet
  facet normal 1 0 0
    outer loop
      vertex 1 55 20
      vertex 1 53.4756 4.31803
      vertex 1 55 0
    endloop
  endfacet
  facet normal 1 0 0
    outer loop
      vertex 1 54.2021 16.682
      vertex 1 51.1244 4.31803
      vertex 1 53.4756 4.31803
    endloop
  endfacet
  facet normal 1 0 0
    outer loop
      vertex 1 53.4756 4.31803
      vertex 1 54.2021 2.08197
      vertex 1 55 0
    endloop
  endfacet
  facet normal 1 0 0
    outer loop
      vertex 1 54.2021 2.08197
      vertex 1 52.3 0.7
      vertex 1 55 0
    endloop
  endfacet
  facet normal 1 0 0
    outer loop
      vertex 1 4.60211 16.682
      vertex 1 3.87557 4.31803
      vertex 1 52.3 0.7
    endloop
  endfacet
  facet normal 1 0 0
    outer loop
      vertex 1 52.3 15.3
      vertex 1 50.3979 16.682
      vertex 1 50.3979 2.08197
    endloop
  endfacet
  facet normal 1 0 0
    outer loop
      vertex 1 51.1244 18.918
      vertex 1 3.87557 18.918
      vertex 1 50.3979 16.682
    endloop
  endfacet
  facet normal 1 0 0
    outer loop
      vertex 1 55 20
      vertex 1 3.87557 18.918
      vertex 1 51.1244 18.918
    endloop
  endfacet
  facet normal 1 0 0
    outer loop
      vertex 1 55 20
      vertex 1 51.1244 18.918
      vertex 1 53.4756 18.918
    endloop
  endfacet
  facet normal 1 0 0
    outer loop
      vertex 1 55 20
      vertex 1 54.2021 16.682
      vertex 1 53.4756 4.31803
    endloop
  endfacet
  facet normal 1 0 0
    outer loop
      vertex 1 3.87557 4.31803
      vertex 1 4.60211 2.08197
      vertex 1 55 0
    endloop
  endfacet
  facet normal 1 0 0
    outer loop
      vertex 1 2.7 15.3
      vertex 1 0.797887 16.682
      vertex 1 3.87557 4.31803
    endloop
  endfacet
  facet normal 1 0 0
    outer loop
      vertex 1 53.4756 18.918
      vertex 1 54.2021 16.682
      vertex 1 55 20
    endloop
  endfacet
endsolid OpenSCAD_Model
